#!OML:ASF H:\Terrain\Patient Classification 1\Walking\liu\liu.ASF
:FULLY-SPECIFIED
:DEGREES
127
root 8.24777 16.3375 -11.1557 10.1514 0.110556 -1.23916
lowerback 0.154029 -0.829589 -1.85786
upperback 0.536749 -1.12242 3.99154
thorax 0.581732 -0.583758 5.1591
lowerneck -20.8079 -3.66171 -13.2026
upperneck 13.4822 -3.51953 12.9814
head 8.06362 -1.09188 6.14521
rclavicle -1.11319e-014 1.03368e-014
rhumerus -32.9102 3.64366 -78.8107
rradius 20.7108
rwrist -5.688
rhand -34.0771 -19.8282
rfingers 7.12502
rthumb -7.25403 -49.6838
lclavicle -1.11319e-014 1.03368e-014
lhumerus -33.6394 -16.3197 95.8811
lradius 35.6042
lwrist 11.4757
lhand -19.149 -25.6524
lfingers 7.12502
lthumb 7.16131 4.20646
rfemur -26.2088 1.95871 25.8692
rtibia 40.6648
rfoot -23.3758 0.958836
rtoes -16.2852
lfemur -32.6899 9.45511 -20.2856
ltibia 69.4252
lfoot -14.0802 11.8238
ltoes -4.50168
128
root 8.25099 16.3529 -10.9287 10.2079 -0.298976 -1.54969
lowerback 0.0362345 -0.635753 -1.65563
upperback 0.646518 -0.866489 3.95324
thorax 0.730361 -0.458409 5.00317
lowerneck -21.001 -3.61232 -12.7743
upperneck 13.5424 -3.53738 12.8563
head 8.10896 -1.08333 6.02854
rclavicle -4.57205e-015 2.14687e-014
rhumerus -31.2887 4.72521 -79.8593
rradius 21.697
rwrist -5.37368
rhand -33.4349 -20.7528
rfingers 7.12502
rthumb -6.63407 -50.6288
lclavicle -4.57205e-015 2.14687e-014
lhumerus -34.5552 -14.8028 95.3468
lradius 34.8646
lwrist 13.2641
lhand -17.4301 -25.0856
lfingers 7.12502
lthumb 8.82033 4.71008
rfemur -24.9509 2.33465 26.2378
rtibia 39.8672
rfoot -23.6124 0.68129
rtoes -18.6236
lfemur -34.422 9.22676 -20.2141
ltibia 68.2633
lfoot -15.2961 11.2937
ltoes -9.80504
129
root 8.25503 16.368 -10.7002 10.3025 -0.688134 -1.40981
lowerback -0.136938 -0.345596 -1.77327
upperback 0.712876 -0.47882 3.78381
thorax 0.856614 -0.267099 4.89486
lowerneck -20.984 -3.74552 -12.8234
upperneck 13.5084 -3.73701 13.0213
head 8.12844 -1.16493 6.06812
rclavicle -4.17448e-015 -1.59028e-014
rhumerus -29.8442 5.81655 -80.6607
rradius 22.4992
rwrist -5.28423
rhand -33.8601 -19.9188
rfingers 7.12502
rthumb -7.04448 -49.7815
lclavicle -4.17448e-015 -1.59028e-014
lhumerus -35.926 -14.4117 95.5837
lradius 33.8047
lwrist 13.2675
lhand -19.817 -25.2249
lfingers 7.12502
lthumb 6.51646 4.65489
rfemur -23.6225 2.60131 26.0934
rtibia 38.9784
rfoot -23.8671 0.556205
rtoes -20.6845
lfemur -36.0364 8.91347 -20.6621
ltibia 66.8783
lfoot -16.4704 11.4689
ltoes -12.5241
130
root 8.2567 16.3955 -10.469 10.4103 -0.999528 -1.45522
lowerback -0.133793 0.0221514 -1.77092
upperback 0.587352 0.0156201 3.80194
thorax 0.677143 -0.0138055 4.91663
lowerneck -20.7262 -4.00105 -13.2599
upperneck 13.5151 -4.01286 13.1379
head 8.13765 -1.31612 6.14537
rclavicle 1.15295e-014 7.95139e-016
rhumerus -28.8742 7.52353 -81.3662
rradius 23.4246
rwrist -6.53884
rhand -33.777 -19.8521
rfingers 7.12502
rthumb -6.96434 -49.7175
lclavicle 1.15295e-014 7.95139e-016
lhumerus -37.3798 -14.0205 96.0381
lradius 32.5506
lwrist 12.8067
lhand -20.3705 -26.9438
lfingers 7.12502
lthumb 5.98211 2.95175
rfemur -22.2576 3.11276 26.1516
rtibia 38.0216
rfoot -23.9792 0.122402
rtoes -21.4772
lfemur -37.5966 8.61903 -20.8394
ltibia 65.2113
lfoot -16.833 11.6572
ltoes -8.67718
131
root 8.25667 16.4191 -10.2429 10.481 -1.2566 -1.93798
lowerback -0.125452 0.3128 -1.40136
upperback 0.582912 0.401665 3.94921
thorax 0.631174 0.182337 4.86223
lowerneck -20.6106 -4.17442 -13.5534
upperneck 13.5002 -4.18402 13.1696
head 8.14478 -1.41367 6.18229
rclavicle -2.38542e-015 0
rhumerus -27.9172 9.76651 -82.1791
rradius 24.9986
rwrist -8.26145
rhand -32.6755 -20.7887
rfingers 7.12502
rthumb -5.90094 -50.6865
lclavicle -2.38542e-015 0
lhumerus -38.3403 -13.5006 96.1631
lradius 31.1123
lwrist 12.2235
lhand -20.2778 -28.7212
lfingers 7.12502
lthumb 6.07159 1.17182
rfemur -20.9225 3.76217 26.7044
rtibia 37.0054
rfoot -24.1829 -0.275381
rtoes -20.433
lfemur -39.0313 8.34554 -20.3679
ltibia 63.1351
lfoot -17.1446 11.5285
ltoes -1.36516
